<svg height="15" width="80" viewBox="0 0 80 15">
    <path d="M7.5 11.85l-4.4 2.28.8-4.88L.37 5.78l4.9-.74L7.5.62l2.22 4.42 4.9.74-3.52 3.47.8 4.88M39.5 11.85l-4.4 2.28.8-4.88-3.53-3.47 4.9-.74L39.5.62l2.22 4.42 4.9.74-3.52 3.47.8 4.88M23.5 11.85l-4.4 2.28.8-4.88-3.53-3.47 4.9-.74L23.5.62l2.22 4.42 4.9.74-3.52 3.47.8 4.88M55.5 11.85l-4.4 2.28.8-4.88-3.53-3.47 4.9-.74L55.5.62l2.22 4.42 4.9.74-3.52 3.47.8 4.88M71.5 11.85l-4.4 2.28.8-4.88-3.53-3.47 4.9-.74L71.5.62l2.22 4.42 4.9.74-3.52 3.47.8 4.88"></path>
</svg>